<svg xmlns="http://www.w3.org/2000/svg" xmlns:xlink="http://www.w3.org/1999/xlink" width="25" height="25" viewBox="0 0 25 25"><defs><linearGradient id="a"><stop offset="0" stop-color="#ffd800"/><stop offset="1" stop-color="#ff6100"/></linearGradient><linearGradient id="b" x1="906.952" x2="931.379" y1="515.915" y2="546.094" gradientTransform="translate(-727.79 618.83) scale(.80097)" gradientUnits="userSpaceOnUse" xlink:href="#a"/></defs><g fill="#fff" transform="translate(4.499 -1031.861)"><rect width="25" height="25" x="-4.499" y="1031.861" fill="url(#b)" rx="5.283" ry="5.283"/><path d="m 4.015625,4 c -2.2073554,0 -4,1.7927 -4,4 0,2.2074 1.7926446,4 4,4 l 7.96875,0 c 2.207356,0 4,-1.7926 4,-4 0,-2.2073 -1.792644,-4 -4,-4 l -7.96875,0 z m 0,1 7.96875,0 c 1.670654,0 3,1.3294 3,3 0,1.6707 -1.329346,3 -3,3 l -7.96875,0 c -1.670654,0 -3,-1.3293 -3,-3 0,-1.6706 1.329346,-3 3,-3 z m 7.96875,1 c -1.098647,0 -2,0.9014 -2,2 0,1.0987 0.901353,2 2,2 1.098647,0 2,-0.9013 2,-2 0,-1.0986 -0.901353,-2 -2,-2 z m 0,1 c 0.558207,0 1,0.4418 1,1 0,0.5582 -0.441793,1 -1,1 -0.558207,0 -1,-0.4418 -1,-1 0,-0.5582 0.441793,-1 1,-1 z" color="#000" font-family="sans-serif" font-weight="400" overflow="visible" transform="translate(.001 1036.361)" style="text-indent:0;text-align:start;line-height:normal;text-transform:none;block-progression:tb"/></g></svg>